<svg width="534" height="667" viewBox="0 0 534 667" fill="none" xmlns="http://www.w3.org/2000/svg">
    <path
        d="M458.317 399.981C499.738 399.981 533.317 433.56 533.317 474.981V505.15C533.317 541.606 517.402 576.245 489.741 599.993C437.56 644.792 362.882 666.686 266.549 666.686C170.232 666.686 95.6048 644.799 43.5092 600.01C15.8885 576.263 0 541.65 0 505.225V474.981C0 433.56 33.5786 399.981 75 399.981H458.317ZM458.317 449.981H75C61.1929 449.981 50 461.174 50 474.981V505.225C50 527.08 59.533 547.848 76.1055 562.096C118.042 598.15 181.242 616.686 266.549 616.686C351.881 616.686 415.142 598.139 457.171 562.056C473.768 547.807 483.317 527.024 483.317 505.15V474.981C483.317 461.174 472.124 449.981 458.317 449.981ZM263.167 0.228222L266.56 0C279.216 0 289.676 9.40513 291.331 21.6077L291.56 25L291.533 49.9667L408.215 49.9835C449.637 49.9835 483.215 83.5622 483.215 124.984V275.137C483.215 316.558 449.637 350.137 408.215 350.137H124.882C83.4606 350.137 49.8819 316.558 49.8819 275.137V124.984C49.8819 83.5622 83.4606 49.9835 124.882 49.9835L241.533 49.9667L241.56 25C241.56 12.3435 250.965 1.88364 263.167 0.228222ZM408.215 99.9835H124.882C111.075 99.9835 99.8819 111.176 99.8819 124.984V275.137C99.8819 288.944 111.075 300.137 124.882 300.137H408.215C422.022 300.137 433.215 288.944 433.215 275.137V124.984C433.215 111.176 422.022 99.9835 408.215 99.9835ZM191.525 149.984C214.524 149.984 233.168 168.628 233.168 191.626C233.168 214.625 214.524 233.269 191.525 233.269C168.526 233.269 149.882 214.625 149.882 191.626C149.882 168.628 168.526 149.984 191.525 149.984ZM341.283 149.984C364.282 149.984 382.926 168.628 382.926 191.626C382.926 214.625 364.282 233.269 341.283 233.269C318.284 233.269 299.64 214.625 299.64 191.626C299.64 168.628 318.284 149.984 341.283 149.984Z"
        fill="white" />
</svg>